<svg width="100" height="100" xmlns="http://www.w3.org/2000/svg">
 <!-- Created with Method Draw - http://github.com/duopixel/Method-Draw/ -->

 <g>
  <title>background</title>
  <rect fill="none" id="canvas_background" height="102" width="102" y="-1" x="-1"/>
 </g>
 <g>
  <title>Layer 1</title>
  <g stroke="null" id="svg_1">
   <g stroke="null" id="svg_5">
    <path stroke="null" d="m30.89356,66.568376c0,2.682095 -1.388559,5.866891 -4.478332,5.866891c-3.879076,0 -6.225524,-4.884479 -6.225524,-8.237862c0,-2.682095 1.388559,-5.866891 4.478332,-5.866891c3.903594,0 6.225524,4.884479 6.225524,8.237862zm-8.188817,11.566722c0,2.323461 -1.221503,4.741945 -3.856088,4.741945c-3.831562,0 -6.633203,-4.694432 -6.633203,-8.165829c0,-2.323457 1.244491,-4.764933 3.856088,-4.764933c3.831562,0 6.633203,4.717423 6.633203,8.190352l0,-0.001534zm9.434839,-0.646766c5.866891,0 13.793629,8.453962 13.793629,14.104752c0,3.040728 -2.490517,3.520439 -4.93352,3.520439c-3.209318,0 -5.794859,-2.154871 -8.860109,-2.154871c-3.209318,0 -5.938923,2.131883 -9.411852,2.131883c-2.323461,0 -4.381777,-0.790837 -4.381777,-3.49592c0,-5.675313 7.926738,-14.104752 13.793629,-14.104752l0,-0.001531zm5.722823,-5.053066c-3.089773,0 -4.478332,-3.184796 -4.478332,-5.866891c0,-3.353383 2.323461,-8.237862 6.225524,-8.237862c3.089773,0 4.478332,3.184796 4.478332,5.866891c0,3.353383 -2.346449,8.237862 -6.225524,8.237862zm10.345223,-2.490517c2.610059,0 3.856084,2.443003 3.856084,4.764933c0,3.472929 -2.80164,8.165826 -6.633203,8.165826c-2.634581,0 -3.856084,-2.418481 -3.856084,-4.741942c0,-3.472929 2.80164,-8.190352 6.633203,-8.190352l0,0.001534z" id="svg_4"/>
   </g>
   <g stroke="null" id="svg_7">
    <path stroke="null" d="m72.614395,36.22595c0,2.682095 -1.388559,5.866891 -4.478332,5.866891c-3.879076,0 -6.225524,-4.884479 -6.225524,-8.237862c0,-2.682095 1.388559,-5.866891 4.478332,-5.866891c3.903594,0 6.225524,4.884479 6.225524,8.237862zm-8.188817,11.566722c0,2.323461 -1.221503,4.741945 -3.856088,4.741945c-3.831562,0 -6.633203,-4.694432 -6.633203,-8.165829c0,-2.323461 1.244491,-4.764933 3.856088,-4.764933c3.831562,0 6.633203,4.717423 6.633203,8.190352l0,-0.001534zm9.434839,-0.646766c5.866891,0 13.793629,8.453962 13.793629,14.104749c0,3.040732 -2.490517,3.520442 -4.93352,3.520442c-3.209318,0 -5.794859,-2.154871 -8.860109,-2.154871c-3.209318,0 -5.938923,2.131883 -9.411852,2.131883c-2.323461,0 -4.381777,-0.790837 -4.381777,-3.49592c0,-5.675313 7.926738,-14.104752 13.793629,-14.104752l0,-0.001531zm5.722823,-5.053066c-3.089773,0 -4.478332,-3.184796 -4.478332,-5.866891c0,-3.353383 2.323461,-8.237862 6.225524,-8.237862c3.089773,0 4.478332,3.184796 4.478332,5.866891c0,3.353383 -2.346449,8.237862 -6.225524,8.237862zm10.345223,-2.490517c2.610059,0 3.856084,2.443003 3.856084,4.764933c0,3.472929 -2.80164,8.165826 -6.633203,8.165826c-2.634581,0 -3.856084,-2.418481 -3.856084,-4.741942c0,-3.472929 2.80164,-8.190352 6.633203,-8.190352l0,0.001534z" id="svg_6"/>
   </g>
   <g stroke="null" id="svg_9">
    <path stroke="null" d="m30.89356,13.12433c0,2.682095 -1.388559,5.866891 -4.478332,5.866891c-3.879076,0 -6.225524,-4.884479 -6.225524,-8.237862c0,-2.682095 1.388559,-5.866891 4.478332,-5.866891c3.903594,0 6.225524,4.884479 6.225524,8.237862zm-8.188817,11.566722c0,2.323461 -1.221503,4.741945 -3.856088,4.741945c-3.831562,0 -6.633203,-4.694432 -6.633203,-8.165829c0,-2.323461 1.244491,-4.764933 3.856088,-4.764933c3.831562,0 6.633203,4.717423 6.633203,8.190352l0,-0.001534zm9.434839,-0.646766c5.866891,0 13.793629,8.453962 13.793629,14.104749c0,3.040732 -2.490517,3.520442 -4.93352,3.520442c-3.209318,0 -5.794859,-2.154871 -8.860109,-2.154871c-3.209318,0 -5.938923,2.131883 -9.411852,2.131883c-2.323461,0 -4.381777,-0.790837 -4.381777,-3.49592c0,-5.675313 7.926738,-14.104752 13.793629,-14.104752l0,-0.001531zm5.722823,-5.053066c-3.089773,0 -4.478332,-3.184796 -4.478332,-5.866891c0,-3.353383 2.323461,-8.237862 6.225524,-8.237862c3.089773,0 4.478332,3.184796 4.478332,5.866891c0,3.353383 -2.346449,8.237862 -6.225524,8.237862zm10.345223,-2.490517c2.610059,0 3.856084,2.443003 3.856084,4.764933c0,3.472929 -2.80164,8.165826 -6.633203,8.165826c-2.634581,0 -3.856084,-2.418481 -3.856084,-4.741942c0,-3.472929 2.80164,-8.190352 6.633203,-8.190352l0,0.001534z" id="svg_8"/>
   </g>
  </g>
 </g>
</svg>